<svg height="512pt" viewBox="-3 0 512 512.00101" width="512pt" xmlns="http://www.w3.org/2000/svg"><path d="m398.460938 325.417969c1.75-.882813 3.523437-1.667969 5.308593-2.386719v-199.210938h-393.632812v231.898438c0 12.910156 10.464843 23.378906 23.378906 23.378906h328.398437c2.105469-22.199218 15.183594-42.863281 36.546876-53.679687zm-305.726563-3.121094c0 4.484375-3.632813 8.113281-8.117187 8.113281h-29.957032c-4.480468 0-8.113281-3.628906-8.113281-8.113281v-29.957031c0-4.484375 3.632813-8.117188 8.113281-8.117188h29.960938c4.480468 0 8.113281 3.632813 8.113281 8.117188zm0-111.722656c0 4.484375-3.632813 8.117187-8.117187 8.117187h-29.957032c-4.480468 0-8.113281-3.632812-8.113281-8.117187v-29.957031c0-4.484376 3.632813-8.113282 8.113281-8.113282h29.960938c4.480468 0 8.113281 3.628906 8.113281 8.113282zm92.996094 111.722656c0 4.484375-3.632813 8.113281-8.113281 8.113281h-29.957032c-4.484375 0-8.117187-3.628906-8.117187-8.113281v-29.957031c0-4.484375 3.632812-8.117188 8.117187-8.117188h29.957032c4.480468 0 8.113281 3.632813 8.113281 8.117188zm0-111.722656c0 4.484375-3.632813 8.117187-8.113281 8.117187h-29.957032c-4.484375 0-8.117187-3.632812-8.117187-8.117187v-29.957031c0-4.484376 3.632812-8.113282 8.117187-8.113282h29.957032c4.480468 0 8.113281 3.628906 8.113281 8.113282zm93 111.722656c0 4.484375-3.632813 8.113281-8.113281 8.113281h-29.960938c-4.480469 0-8.113281-3.628906-8.113281-8.113281v-29.957031c0-4.484375 3.632812-8.117188 8.113281-8.117188h29.960938c4.480468 0 8.113281 3.632813 8.113281 8.117188zm0-111.722656c0 4.484375-3.632813 8.117187-8.113281 8.117187h-29.960938c-4.480469 0-8.113281-3.632812-8.113281-8.117187v-29.957031c0-4.484376 3.632812-8.113282 8.113281-8.113282h29.960938c4.480468 0 8.113281 3.628906 8.113281 8.113282zm93 111.722656c0 4.484375-3.632813 8.113281-8.117188 8.113281h-29.957031c-4.484375 0-8.113281-3.628906-8.113281-8.113281v-29.957031c0-4.484375 3.628906-8.117188 8.113281-8.117188h29.957031c4.484375 0 8.117188 3.632813 8.117188 8.117188zm0-111.722656c0 4.484375-3.632813 8.117187-8.117188 8.117187h-29.957031c-4.484375 0-8.113281-3.632812-8.113281-8.117187v-29.957031c0-4.484376 3.628906-8.113282 8.113281-8.113282h29.957031c4.484375 0 8.117188 3.628906 8.117188 8.113282zm0 0" fill="#d7d7e6"/><path d="m403.769531 85.546875c0-16.757813-11.144531-30.902344-26.425781-35.449219v7.25c0 12.925782-10.476562 23.40625-23.402344 23.40625-12.925781 0-23.40625-10.480468-23.40625-23.40625v-8.789062h-51.179687v8.789062c0 12.925782-10.480469 23.40625-23.40625 23.40625s-23.40625-10.480468-23.40625-23.40625v-8.789062h-51.179688v8.789062c0 12.925782-10.480469 23.40625-23.40625 23.40625s-23.40625-10.480468-23.40625-23.40625v-8.789062h-51.179687v8.789062c0 12.925782-10.480469 23.40625-23.40625 23.40625-12.925782 0-23.402344-10.480468-23.402344-23.40625v-7.25c-15.28125 4.546875-26.425781 18.691406-26.425781 35.449219v38.273437h393.632812zm0 0" fill="#ff5a5a"/><path d="m494.3125 477.304688-21.023438-41.53125c-4.191406 3.695312-8.910156 6.921874-14.125 9.5625-5.214843 2.636718-10.613281 4.53125-16.070312 5.722656l21.023438 41.53125c4.222656 8.335937 14.402343 11.675781 22.738281 7.453125 8.339843-4.21875 11.675781-14.398438 7.457031-22.738281zm0 0" fill="#ff5a5a"/><path d="m473.289062 435.773438c22.414063-19.753907 29.605469-52.847657 15.480469-80.746094-15.875-31.363282-52.984375-44.894532-85-31.996094-1.785156.71875-3.558593 1.503906-5.308593 2.386719-21.363282 10.816406-34.441407 31.480469-36.546876 53.679687-1.160156 12.210938.992188 24.878906 6.941407 36.628906 14.121093 27.902344 45.046875 41.703126 74.238281 35.332032 5.457031-1.191406 10.855469-3.082032 16.070312-5.722656 5.214844-2.640626 9.933594-5.867188 14.125-9.5625zm0 0" fill="#89e6ff"/><g fill="#ffc868"><path d="m59.964844 80.753906c12.925781 0 23.40625-10.480468 23.40625-23.40625v-23.808594c0-12.925781-10.480469-23.402343-23.40625-23.402343-12.925782 0-23.402344 10.476562-23.402344 23.402343v23.808594c-.003906 12.925782 10.476562 23.40625 23.402344 23.40625zm0 0"/><path d="m157.957031 80.753906c12.925781 0 23.40625-10.480468 23.40625-23.40625v-23.808594c0-12.925781-10.480469-23.402343-23.40625-23.402343s-23.40625 10.476562-23.40625 23.402343v23.808594c0 12.925782 10.480469 23.40625 23.40625 23.40625zm0 0"/><path d="m255.949219 80.753906c12.925781 0 23.40625-10.480468 23.40625-23.40625v-23.808594c0-12.925781-10.480469-23.402343-23.40625-23.402343s-23.40625 10.476562-23.40625 23.402343v23.808594c0 12.925782 10.480469 23.40625 23.40625 23.40625zm0 0"/><path d="m353.941406 80.753906c12.925782 0 23.402344-10.480468 23.402344-23.40625v-23.808594c0-12.925781-10.476562-23.402343-23.402344-23.402343-12.925781 0-23.40625 10.476562-23.40625 23.402343v23.808594c0 12.925782 10.476563 23.40625 23.40625 23.40625zm0 0"/></g><path d="m84.617188 172.503906h-29.957032c-4.480468 0-8.113281 3.628906-8.113281 8.113282v29.957031c0 4.484375 3.632813 8.117187 8.113281 8.117187h29.960938c4.480468 0 8.113281-3.632812 8.113281-8.117187v-29.957031c0-4.484376-3.632813-8.113282-8.117187-8.113282zm0 0" fill="#6287f8"/><path d="m177.617188 172.503906h-29.957032c-4.484375 0-8.117187 3.628906-8.117187 8.113282v29.957031c0 4.484375 3.632812 8.117187 8.117187 8.117187h29.957032c4.480468 0 8.113281-3.632812 8.113281-8.117187v-29.957031c0-4.484376-3.632813-8.113282-8.113281-8.113282zm0 0" fill="#88dc60"/><path d="m270.617188 172.503906h-29.960938c-4.480469 0-8.113281 3.628906-8.113281 8.113282v29.957031c0 4.484375 3.632812 8.117187 8.113281 8.117187h29.960938c4.480468 0 8.113281-3.632812 8.113281-8.117187v-29.957031c0-4.484376-3.632813-8.113282-8.113281-8.113282zm0 0" fill="#6287f8"/><path d="m363.613281 172.503906h-29.957031c-4.484375 0-8.113281 3.628906-8.113281 8.113282v29.957031c0 4.484375 3.628906 8.117187 8.113281 8.117187h29.957031c4.484375 0 8.117188-3.632812 8.117188-8.117187v-29.957031c0-4.484376-3.636719-8.113282-8.117188-8.113282zm0 0" fill="#88dc60"/><path d="m84.617188 284.226562h-29.957032c-4.480468 0-8.113281 3.632813-8.113281 8.113282v29.957031c0 4.484375 3.632813 8.117187 8.113281 8.117187h29.960938c4.480468 0 8.113281-3.632812 8.113281-8.117187v-29.957031c0-4.480469-3.632813-8.113282-8.117187-8.113282zm0 0" fill="#88dc60"/><path d="m177.617188 284.226562h-29.957032c-4.484375 0-8.117187 3.632813-8.117187 8.113282v29.957031c0 4.484375 3.632812 8.117187 8.117187 8.117187h29.957032c4.480468 0 8.113281-3.632812 8.113281-8.117187v-29.957031c0-4.480469-3.632813-8.113282-8.113281-8.113282zm0 0" fill="#6287f8"/><path d="m270.617188 284.226562h-29.960938c-4.480469 0-8.113281 3.632813-8.113281 8.113282v29.957031c0 4.484375 3.632812 8.117187 8.113281 8.117187h29.960938c4.480468 0 8.113281-3.632812 8.113281-8.117187v-29.957031c0-4.480469-3.632813-8.113282-8.113281-8.113282zm0 0" fill="#88dc60"/><path d="m363.613281 284.226562h-29.957031c-4.484375 0-8.113281 3.632813-8.113281 8.113282v29.957031c0 4.484375 3.628906 8.117187 8.113281 8.117187h29.957031c4.484375 0 8.117188-3.632812 8.117188-8.117187v-29.957031c0-4.480469-3.636719-8.113282-8.117188-8.113282zm0 0" fill="#6287f8"/><path d="m503.351562 472.730469-17.683593-34.9375c21.210937-23.058594 27.105469-57.785157 12.144531-87.34375-9.332031-18.429688-25.277344-32.125-44.910156-38.558594-12.789063-4.195313-26.144532-4.957031-38.996094-2.414063v-223.929687c0-18.5625-10.792969-34.644531-26.425781-42.320313v-9.683593c0-18.496094-15.046875-33.542969-33.539063-33.542969-18.496094 0-33.542968 15.046875-33.542968 33.539062v4.882813h-30.910157v-4.882813c0-18.492187-15.046875-33.539062-33.539062-33.539062-18.496094 0-33.539063 15.046875-33.539063 33.539062v4.882813h-30.914062v-4.882813c0-18.492187-15.042969-33.539062-33.539063-33.539062-18.492187 0-33.539062 15.046875-33.539062 33.539062v4.882813h-30.914063v-4.882813c.003906-18.492187-15.042968-33.539062-33.539062-33.539062-18.492188 0-33.539063 15.046875-33.539063 33.539062v9.683594c-15.632812 7.679688-26.425781 23.761719-26.425781 42.324219v270.171875c0 18.476562 15.035156 33.511719 33.511719 33.511719h318.039062c.53125 10.6875 3.285157 21.242187 8.261719 31.074219 9.328125 18.433593 25.277344 32.128906 44.90625 38.5625 7.925781 2.597656 16.066406 3.886718 24.171875 3.886718 2.847656 0 5.691406-.164062 8.523437-.480468l17.664063 34.894531c4.757813 9.40625 14.296875 14.832031 24.183594 14.832031 4.101562 0 8.265625-.933594 12.171875-2.910156 13.308594-6.742188 18.65625-23.050782 11.917968-36.359375zm-162.683593-434.308594v-4.882813c0-7.316406 5.953125-13.269531 13.273437-13.269531 7.316406 0 13.269532 5.953125 13.269532 13.269531v23.808594c0 .457032-.023438.90625-.070313 1.351563-.679687 6.683593-6.339844 11.917969-13.203125 11.917969s-12.523438-5.238282-13.199219-11.925782c-.046875-.441406-.070312-.890625-.070312-1.34375zm-97.992188 0v-4.882813c0-7.316406 5.953125-13.269531 13.273438-13.269531 7.316406 0 13.269531 5.953125 13.269531 13.269531v23.808594c0 .453125-.023438.902344-.066406 1.34375-.679688 6.6875-6.339844 11.925782-13.203125 11.925782s-12.527344-5.238282-13.203125-11.925782c-.046875-.441406-.070313-.890625-.070313-1.34375zm-97.988281 0v-4.882813c0-7.316406 5.953125-13.269531 13.269531-13.269531 7.316407 0 13.269531 5.953125 13.269531 13.269531v23.808594c0 .453125-.023437.902344-.066406 1.34375-.675781 6.6875-6.339844 11.925782-13.203125 11.925782s-12.527343-5.238282-13.203125-11.925782c-.042968-.441406-.066406-.890625-.066406-1.34375zm-97.992188.011719v-4.894532c0-7.316406 5.953126-13.269531 13.269532-13.269531 7.320312 0 13.273437 5.953125 13.273437 13.269531v23.808594c0 .453125-.023437.902344-.070312 1.34375-.675781 6.6875-6.339844 11.925782-13.203125 11.925782-6.859375 0-12.519532-5.234376-13.203125-11.917969-.042969-.445313-.066407-.894531-.066407-1.351563zm308.628907 322.851562c-.832031 2.539063-1.523438 5.101563-2.089844 7.675782h-319.722656c-7.300781 0-13.242188-5.941407-13.242188-13.246094v-221.761719h73.742188c5.597656 0 10.136719-4.535156 10.136719-10.132813 0-5.597656-4.539063-10.136718-10.136719-10.136718h-73.742188v-28.136719c0-7.234375 2.882813-13.808594 7.550781-18.640625 4.128907 13.851562 16.972657 23.980469 32.144532 23.980469 18.042968 0 32.796875-14.324219 33.507812-32.195313h30.980469c.707031 17.875 15.460937 32.195313 33.503906 32.195313s32.796875-14.324219 33.507813-32.195313h30.980468c.707032 17.875 15.460938 32.195313 33.503907 32.195313s32.800781-14.324219 33.507812-32.195313h30.976563c.710937 17.875 15.464844 32.195313 33.507812 32.195313 15.171875 0 28.015625-10.128907 32.144532-23.980469 4.667968 4.835938 7.550781 11.40625 7.550781 18.640625v28.136719h-218.546875c-5.597656 0-10.132813 4.539062-10.132813 10.136718 0 5.597657 4.535157 10.132813 10.132813 10.132813h218.546875v182.558594c-4.214844 2.152343-8.175781 4.660156-11.859375 7.46875.050781-.554688.085937-1.113281.085937-1.683594v-29.957031c0-10.0625-8.1875-18.25-18.25-18.25h-29.957031c-10.066406 0-18.25 8.1875-18.25 18.25v29.957031c0 10.0625 8.1875 18.25 18.25 18.25h29.957031c.765625 0 1.519531-.0625 2.261719-.15625-4.496094 6.308594-8.070312 13.324219-10.550781 20.894531zm6.269531-66.925781v25.917969h-25.917969v-25.917969zm65.785156 148.089844c-5.488281-.144531-10.984375-1.085938-16.34375-2.84375-14.484375-4.75-26.253906-14.855469-33.140625-28.453125-3.515625-6.949219-5.53125-14.382813-6.042969-21.921875-.457031-6.761719.316407-13.609375 2.324219-20.269531.136719-.453126.261719-.910157.410157-1.363282 3.574218-10.910156 10.191406-20.273437 19.050781-27.175781 2.902343-2.261719 6.042969-4.261719 9.402343-5.960937 3.539063-1.792969 7.179688-3.152344 10.867188-4.152344 4.894531-1.328125 9.875-1.992188 14.8125-1.992188 20.847656 0 40.96875 11.449219 51.011719 31.285156 9.792969 19.347657 7.476562 41.695313-4.089844 58.375-5.222656 7.527344-12.324219 13.898438-21.054687 18.316407-8.566407 4.335937-17.871094 6.402343-27.207032 6.15625zm58.285156 44.613281c-.566406 1.722656-1.769531 3.121094-3.386718 3.9375-3.335938 1.691406-7.425782.347656-9.117188-2.988281l-15.605468-30.832031c2.085937-.839844 4.152343-1.773438 6.183593-2.800782 2.042969-1.035156 4.003907-2.160156 5.914063-3.347656l15.617187 30.851562c.816407 1.621094.957031 3.457032.394531 5.179688zm0 0"/><path d="m84.617188 162.367188h-29.957032c-10.0625 0-18.25 8.1875-18.25 18.25v29.957031c0 10.0625 8.1875 18.25 18.25 18.25h29.960938c10.0625 0 18.246094-8.1875 18.246094-18.25v-29.957031c0-10.0625-8.183594-18.25-18.25-18.25zm-2.019532 46.1875h-25.917968v-25.917969h25.917968zm0 0"/><path d="m177.617188 162.367188h-29.957032c-10.0625 0-18.25 8.1875-18.25 18.25v29.957031c0 10.0625 8.1875 18.25 18.25 18.25h29.957032c10.0625 0 18.25-8.1875 18.25-18.25v-29.957031c0-10.0625-8.1875-18.25-18.25-18.25zm-2.019532 46.1875h-25.917968v-25.917969h25.917968zm0 0"/><path d="m240.65625 228.824219h29.960938c10.058593 0 18.246093-8.1875 18.246093-18.25v-29.957031c0-10.0625-8.1875-18.25-18.246093-18.25h-29.960938c-10.0625 0-18.25 8.1875-18.25 18.25v29.957031c0 10.0625 8.1875 18.25 18.25 18.25zm2.019531-46.1875h25.917969v25.917969h-25.917969zm0 0"/><path d="m333.65625 228.824219h29.957031c10.0625 0 18.25-8.1875 18.25-18.25v-29.957031c0-10.0625-8.1875-18.25-18.25-18.25h-29.957031c-10.0625 0-18.25 8.1875-18.25 18.25v29.957031c0 10.0625 8.1875 18.25 18.25 18.25zm2.019531-46.1875h25.917969v25.917969h-25.917969zm0 0"/><path d="m84.617188 274.089844h-29.957032c-10.0625 0-18.25 8.1875-18.25 18.25v29.957031c0 10.066406 8.1875 18.25 18.25 18.25h29.960938c10.0625 0 18.246094-8.1875 18.246094-18.25v-29.957031c0-10.0625-8.183594-18.25-18.25-18.25zm-2.019532 46.1875h-25.917968v-25.917969h25.917968zm0 0"/><path d="m177.617188 274.089844h-29.957032c-10.0625 0-18.25 8.1875-18.25 18.25v29.957031c0 10.066406 8.1875 18.25 18.25 18.25h29.957032c10.0625 0 18.25-8.1875 18.25-18.25v-29.957031c0-10.0625-8.1875-18.25-18.25-18.25zm-2.019532 46.1875h-25.917968v-25.917969h25.917968zm0 0"/><path d="m298.417969 249.386719c-4.492188-3.339844-10.839844-2.410157-14.183594 2.078125l-16.839844 22.625h-26.738281c-7.933594 0-14.683594 5.097656-17.191406 12.183594l-.78125-.242188c-5.347656-1.65625-11.023438 1.335938-12.679688 6.683594-1.65625 5.34375 1.335938 11.023437 6.683594 12.679687l5.722656 1.773438v15.128906c0 10.0625 8.183594 18.25 18.246094 18.25h29.960938c10.0625 0 18.25-8.1875 18.25-18.25v-29.960937c0-3.484376-1.003907-6.738282-2.707032-9.511719l14.335938-19.253907c3.339844-4.492187 2.410156-10.839843-2.078125-14.183593zm-46.113281 44.972656-.515626.691406-2.234374-.691406zm16.289062 25.917969h-25.917969v-6.828125l9.960938 3.085937c.988281.308594 2 .457032 3 .457032 3.144531 0 6.183593-1.46875 8.128906-4.085938l4.828125-6.484375zm0 0"/><path d="m132.570312 133.757812c.648438.128907 1.320313.191407 1.976563.191407.660156 0 1.328125-.0625 1.988281-.191407.636719-.132812 1.277344-.324218 1.894532-.578124.609374-.253907 1.195312-.570313 1.742187-.933594.558594-.375 1.074219-.789063 1.542969-1.257813.464844-.476562.890625-.992187 1.265625-1.539062.363281-.558594.679687-1.144531.933593-1.753907.253907-.609374.445313-1.246093.578126-1.894531.128906-.660156.191406-1.316406.191406-1.988281 0-.65625-.0625-1.316406-.191406-1.976562-.132813-.648438-.324219-1.285157-.578126-1.894532-.253906-.605468-.570312-1.195312-.933593-1.753906-.375-.546875-.800781-1.074219-1.265625-1.539062-.46875-.464844-.984375-.890626-1.542969-1.257813-.546875-.363281-1.132813-.679687-1.742187-.929687-.617188-.253907-1.257813-.449219-1.894532-.578126-1.308594-.265624-2.65625-.265624-3.964844 0-.648437.128907-1.285156.324219-1.894531.578126-.617187.25-1.207031.566406-1.753906.929687-.554687.367187-1.074219.792969-1.539063 1.257813-.464843.464843-.890624.992187-1.257812 1.539062-.363281.558594-.679688 1.148438-.929688 1.753906-.253906.609375-.449218 1.246094-.578124 1.894532-.132813.660156-.203126 1.320312-.203126 1.976562 0 .671875.070313 1.328125.203126 1.988281.128906.648438.324218 1.285157.578124 1.894531.25.609376.566407 1.195313.929688 1.753907.367188.546875.792969 1.0625 1.257812 1.539062.464844.46875.984376.882813 1.539063 1.257813.546875.363281 1.136719.679687 1.753906.933594.609375.253906 1.25.445312 1.894531.578124zm0 0"/></svg>